<svg version="1.1"
      xmlns="http://www.w3.org/2000/svg"
      xmlns:xlink="http://www.w3.org/1999/xlink"  id="snapshot-86164" width="400" height="400" viewBox="0 0 400 400"><desc>This image was made on Patterninja.com</desc><defs>
<!-- image 01390 -->
<g id="transformed-01390" data-image="01390" transform="translate(276.4871630833386, 132.78716308333864) rotate(29, 75.92283691666145, 75.92283691666137)"><g><svg version="1.1" width="151.8456738333229px" height="151.84567383332273px" viewBox="0 0 151.8456738333229 151.84567383332273"><g id="original-01390"><svg xmlns="http://www.w3.org/2000/svg" viewBox="0 0 92 92" xmlns:xlink="http://www.w3.org/1999/xlink" version="1.1" preserveAspectRatio="xMidYMid meet">
  <defs>
    <clipPath id="a">
      <path d="M0 .113h91.887V92H0zm0 0" fill="rgba(0, 0, 0, 1)" stroke="none"/>
    </clipPath>
  </defs>
  <path d="M90.156 41.965L50.036 1.848a5.913 5.913 0 0 0-8.368 0l-8.332 8.332 10.566 10.566a7.03 7.03 0 0 1 7.23 1.684 7.043 7.043 0 0 1 1.673 7.277l10.183 10.184a7.026 7.026 0 0 1 7.278 1.672 7.04 7.04 0 0 1 0 9.957 7.045 7.045 0 0 1-9.961 0 7.038 7.038 0 0 1-1.532-7.66l-9.5-9.497V59.36a7.04 7.04 0 0 1 1.86 11.29 7.04 7.04 0 0 1-9.957 0 7.04 7.04 0 0 1 0-9.958 7.034 7.034 0 0 1 2.308-1.539V33.926a7.001 7.001 0 0 1-2.308-1.535 7.049 7.049 0 0 1-1.516-7.7L29.242 14.273 1.734 41.777a5.918 5.918 0 0 0 0 8.371L41.855 90.27a5.92 5.92 0 0 0 8.368 0l39.933-39.934a5.925 5.925 0 0 0 0-8.371" clip-path="url(#a)" fill="rgba(16, 15, 13, 1)" stroke="none"/>
</svg>
</g></svg></g></g>
<!-- /image 01390 -->

<!-- image 77946 -->
<g id="transformed-77946" data-image="77946" transform="translate(-14.013142030530155, 282.9768579694699) rotate(346, 75.28314203053016, 75.2831420305301)"><g><svg version="1.1" width="150.56628406106032px" height="150.5662840610602px" viewBox="0 0 150.56628406106032 150.5662840610602"><g id="original-77946"><svg xmlns="http://www.w3.org/2000/svg" viewBox="0 0 92 92" xmlns:xlink="http://www.w3.org/1999/xlink" version="1.1" preserveAspectRatio="xMidYMid meet">
  <defs>
    <clipPath id="a">
      <path d="M0 .113h91.887V92H0zm0 0" fill="rgba(0, 0, 0, 1)" stroke="none"/>
    </clipPath>
  </defs>
  <path d="M90.156 41.965L50.036 1.848a5.913 5.913 0 0 0-8.368 0l-8.332 8.332 10.566 10.566a7.03 7.03 0 0 1 7.23 1.684 7.043 7.043 0 0 1 1.673 7.277l10.183 10.184a7.026 7.026 0 0 1 7.278 1.672 7.04 7.04 0 0 1 0 9.957 7.045 7.045 0 0 1-9.961 0 7.038 7.038 0 0 1-1.532-7.66l-9.5-9.497V59.36a7.04 7.04 0 0 1 1.86 11.29 7.04 7.04 0 0 1-9.957 0 7.04 7.04 0 0 1 0-9.958 7.034 7.034 0 0 1 2.308-1.539V33.926a7.001 7.001 0 0 1-2.308-1.535 7.049 7.049 0 0 1-1.516-7.7L29.242 14.273 1.734 41.777a5.918 5.918 0 0 0 0 8.371L41.855 90.27a5.92 5.92 0 0 0 8.368 0l39.933-39.934a5.925 5.925 0 0 0 0-8.371" clip-path="url(#a)" fill="rgba(16, 15, 13, 1)" stroke="none"/>
</svg>
</g></svg></g></g>
<!-- /image 77946 -->

<!-- image 05199 -->
<g id="transformed-05199" data-image="05199" transform="translate(20.887659711193933, 43.10765971119399) rotate(357, 115.15234028880606, 115.152340288806)"><g><svg version="1.1" width="230.30468057761212px" height="230.304680577612px" viewBox="0 0 230.30468057761212 230.304680577612"><g id="original-05199"><svg xmlns="http://www.w3.org/2000/svg" viewBox="0 0 92 92" xmlns:xlink="http://www.w3.org/1999/xlink" version="1.1" preserveAspectRatio="xMidYMid meet">
  <defs>
    <clipPath id="a">
      <path d="M0 .113h91.887V92H0zm0 0" fill="rgba(0, 0, 0, 1)" stroke="none"/>
    </clipPath>
  </defs>
  <path d="M90.156 41.965L50.036 1.848a5.913 5.913 0 0 0-8.368 0l-8.332 8.332 10.566 10.566a7.03 7.03 0 0 1 7.23 1.684 7.043 7.043 0 0 1 1.673 7.277l10.183 10.184a7.026 7.026 0 0 1 7.278 1.672 7.04 7.04 0 0 1 0 9.957 7.045 7.045 0 0 1-9.961 0 7.038 7.038 0 0 1-1.532-7.66l-9.5-9.497V59.36a7.04 7.04 0 0 1 1.86 11.29 7.04 7.04 0 0 1-9.957 0 7.04 7.04 0 0 1 0-9.958 7.034 7.034 0 0 1 2.308-1.539V33.926a7.001 7.001 0 0 1-2.308-1.535 7.049 7.049 0 0 1-1.516-7.7L29.242 14.273 1.734 41.777a5.918 5.918 0 0 0 0 8.371L41.855 90.27a5.92 5.92 0 0 0 8.368 0l39.933-39.934a5.925 5.925 0 0 0 0-8.371" clip-path="url(#a)" fill="rgba(16, 15, 13, 1)" stroke="none"/>
</svg>
</g></svg></g></g>
<!-- /image 05199 -->

<!-- image 59242 -->
<g id="transformed-59242" data-image="59242" transform="translate(300.68427818832646, 14.414278188326506) rotate(0, 49.65572181167352, 49.65572181167349)"><g><svg version="1.1" width="99.31144362334705px" height="99.31144362334697px" viewBox="0 0 99.31144362334705 99.31144362334697"><g id="original-59242"><svg xmlns="http://www.w3.org/2000/svg" viewBox="0 0 92 92" xmlns:xlink="http://www.w3.org/1999/xlink" version="1.1" preserveAspectRatio="xMidYMid meet">
  <defs>
    <clipPath id="a">
      <path d="M0 .113h91.887V92H0zm0 0" fill="rgba(0, 0, 0, 1)" stroke="none"/>
    </clipPath>
  </defs>
  <path d="M90.156 41.965L50.036 1.848a5.913 5.913 0 0 0-8.368 0l-8.332 8.332 10.566 10.566a7.03 7.03 0 0 1 7.23 1.684 7.043 7.043 0 0 1 1.673 7.277l10.183 10.184a7.026 7.026 0 0 1 7.278 1.672 7.04 7.04 0 0 1 0 9.957 7.045 7.045 0 0 1-9.961 0 7.038 7.038 0 0 1-1.532-7.66l-9.5-9.497V59.36a7.04 7.04 0 0 1 1.86 11.29 7.04 7.04 0 0 1-9.957 0 7.04 7.04 0 0 1 0-9.958 7.034 7.034 0 0 1 2.308-1.539V33.926a7.001 7.001 0 0 1-2.308-1.535 7.049 7.049 0 0 1-1.516-7.7L29.242 14.273 1.734 41.777a5.918 5.918 0 0 0 0 8.371L41.855 90.27a5.92 5.92 0 0 0 8.368 0l39.933-39.934a5.925 5.925 0 0 0 0-8.371" clip-path="url(#a)" fill="rgba(16, 15, 13, 1)" stroke="none"/>
</svg>
</g></svg></g></g>
<!-- /image 59242 -->

<!-- image 00118 -->
<g id="transformed-00118" data-image="00118" transform="translate(160.4473597024301, 250.8973597024301) rotate(10, 87.75264029756987, 87.7526402975699)"><g><svg version="1.1" width="175.50528059513974px" height="175.5052805951398px" viewBox="0 0 175.50528059513974 175.5052805951398"><g id="original-00118"><svg xmlns="http://www.w3.org/2000/svg" viewBox="0 0 92 92" xmlns:xlink="http://www.w3.org/1999/xlink" version="1.1" preserveAspectRatio="xMidYMid meet">
  <defs>
    <clipPath id="a">
      <path d="M0 .113h91.887V92H0zm0 0" fill="rgba(0, 0, 0, 1)" stroke="none"/>
    </clipPath>
  </defs>
  <path d="M90.156 41.965L50.036 1.848a5.913 5.913 0 0 0-8.368 0l-8.332 8.332 10.566 10.566a7.03 7.03 0 0 1 7.23 1.684 7.043 7.043 0 0 1 1.673 7.277l10.183 10.184a7.026 7.026 0 0 1 7.278 1.672 7.04 7.04 0 0 1 0 9.957 7.045 7.045 0 0 1-9.961 0 7.038 7.038 0 0 1-1.532-7.66l-9.5-9.497V59.36a7.04 7.04 0 0 1 1.86 11.29 7.04 7.04 0 0 1-9.957 0 7.04 7.04 0 0 1 0-9.958 7.034 7.034 0 0 1 2.308-1.539V33.926a7.001 7.001 0 0 1-2.308-1.535 7.049 7.049 0 0 1-1.516-7.7L29.242 14.273 1.734 41.777a5.918 5.918 0 0 0 0 8.371L41.855 90.27a5.92 5.92 0 0 0 8.368 0l39.933-39.934a5.925 5.925 0 0 0 0-8.371" clip-path="url(#a)" fill="rgba(16, 15, 13, 1)" stroke="none"/>
</svg>
</g></svg></g></g>
<!-- /image 00118 -->
</defs><rect x="0" y="0" width="400" height="400" fill="rgba(255, 255, 255, 0)"></rect><use xlink:href="#transformed-01390" transform="translate(-400, -400)"></use><use xlink:href="#transformed-01390" transform="translate(0, -400)"></use><use xlink:href="#transformed-01390" transform="translate(400, -400)"></use><use xlink:href="#transformed-01390" transform="translate(-400, 0)"></use><use xlink:href="#transformed-01390" transform="translate(0, 0)"></use><use xlink:href="#transformed-01390" transform="translate(400, 0)"></use><use xlink:href="#transformed-01390" transform="translate(-400, 400)"></use><use xlink:href="#transformed-01390" transform="translate(0, 400)"></use><use xlink:href="#transformed-01390" transform="translate(400, 400)"></use><use xlink:href="#transformed-77946" transform="translate(-400, -400)"></use><use xlink:href="#transformed-77946" transform="translate(0, -400)"></use><use xlink:href="#transformed-77946" transform="translate(400, -400)"></use><use xlink:href="#transformed-77946" transform="translate(-400, 0)"></use><use xlink:href="#transformed-77946" transform="translate(0, 0)"></use><use xlink:href="#transformed-77946" transform="translate(400, 0)"></use><use xlink:href="#transformed-77946" transform="translate(-400, 400)"></use><use xlink:href="#transformed-77946" transform="translate(0, 400)"></use><use xlink:href="#transformed-77946" transform="translate(400, 400)"></use><use xlink:href="#transformed-05199" transform="translate(-400, -400)"></use><use xlink:href="#transformed-05199" transform="translate(0, -400)"></use><use xlink:href="#transformed-05199" transform="translate(400, -400)"></use><use xlink:href="#transformed-05199" transform="translate(-400, 0)"></use><use xlink:href="#transformed-05199" transform="translate(0, 0)"></use><use xlink:href="#transformed-05199" transform="translate(400, 0)"></use><use xlink:href="#transformed-05199" transform="translate(-400, 400)"></use><use xlink:href="#transformed-05199" transform="translate(0, 400)"></use><use xlink:href="#transformed-05199" transform="translate(400, 400)"></use><use xlink:href="#transformed-59242" transform="translate(-400, -400)"></use><use xlink:href="#transformed-59242" transform="translate(0, -400)"></use><use xlink:href="#transformed-59242" transform="translate(400, -400)"></use><use xlink:href="#transformed-59242" transform="translate(-400, 0)"></use><use xlink:href="#transformed-59242" transform="translate(0, 0)"></use><use xlink:href="#transformed-59242" transform="translate(400, 0)"></use><use xlink:href="#transformed-59242" transform="translate(-400, 400)"></use><use xlink:href="#transformed-59242" transform="translate(0, 400)"></use><use xlink:href="#transformed-59242" transform="translate(400, 400)"></use><use xlink:href="#transformed-00118" transform="translate(-400, -400)"></use><use xlink:href="#transformed-00118" transform="translate(0, -400)"></use><use xlink:href="#transformed-00118" transform="translate(400, -400)"></use><use xlink:href="#transformed-00118" transform="translate(-400, 0)"></use><use xlink:href="#transformed-00118" transform="translate(0, 0)"></use><use xlink:href="#transformed-00118" transform="translate(400, 0)"></use><use xlink:href="#transformed-00118" transform="translate(-400, 400)"></use><use xlink:href="#transformed-00118" transform="translate(0, 400)"></use><use xlink:href="#transformed-00118" transform="translate(400, 400)"></use></svg>